<svg height="512pt" viewBox="0 0 512 512" width="512pt" xmlns="http://www.w3.org/2000/svg"><path d="m256 60.425781c-107.839844 0-195.574219 87.734375-195.574219 195.574219s87.734375 195.574219 195.574219 195.574219 195.574219-87.734375 195.574219-195.574219-87.734375-195.574219-195.574219-195.574219zm0 361.148438c-91.296875 0-165.574219-74.273438-165.574219-165.574219 0-91.296875 74.277344-165.574219 165.574219-165.574219s165.574219 74.277344 165.574219 165.574219c0 91.300781-74.277344 165.574219-165.574219 165.574219zm0 0"/><path d="m179 212.730469c-23.859375 0-43.269531 19.410156-43.269531 43.269531s19.410156 43.269531 43.269531 43.269531 43.269531-19.410156 43.269531-43.269531-19.410156-43.269531-43.269531-43.269531zm0 56.539062c-7.316406 0-13.269531-5.953125-13.269531-13.269531s5.953125-13.269531 13.269531-13.269531 13.269531 5.953125 13.269531 13.269531-5.953125 13.269531-13.269531 13.269531zm0 0"/><path d="m333 212.730469c-23.859375 0-43.269531 19.410156-43.269531 43.269531s19.410156 43.269531 43.269531 43.269531 43.269531-19.410156 43.269531-43.269531-19.410156-43.269531-43.269531-43.269531zm0 56.539062c-7.316406 0-13.269531-5.953125-13.269531-13.269531s5.953125-13.269531 13.269531-13.269531 13.269531 5.953125 13.269531 13.269531-5.953125 13.269531-13.269531 13.269531zm0 0"/><path d="m447 0h-382c-35.839844 0-65 29.160156-65 65v382c0 35.839844 29.160156 65 65 65h382c35.839844 0 65-29.160156 65-65v-382c0-35.839844-29.160156-65-65-65zm35 447c0 19.300781-15.699219 35-35 35h-382c-19.300781 0-35-15.699219-35-35v-382c0-19.300781 15.699219-35 35-35h382c19.300781 0 35 15.699219 35 35zm0 0"/></svg>